<svg xmlns="http://www.w3.org/2000/svg" xmlns:xlink="http://www.w3.org/1999/xlink" xmlns:serif="http://www.serif.com/" width="100%" height="100%" viewBox="0 0 517 687" version="1.1" xml:space="preserve" style="fill-rule:evenodd;clip-rule:evenodd;stroke-linejoin:round;stroke-miterlimit:2;"> <g transform="matrix(1,0,0,1,-2587,-209)"> <g transform="matrix(1,0,0,1,2160,0)"> <g transform="matrix(1,0,0,1,943.675,895.032)"> <path d="M0,-685.929L0,-145.954L-259.237,0L-516.279,-145.954L-516.279,-685.929L0,-685.929Z" style="fill:rgb(29,66,137);fill-rule:nonzero;"></path> </g> <g transform="matrix(1,0,0,1,923.295,868.169)"> <path d="M0,-633.724L0,-135.077L-238.573,0L-475.52,-135.077L-475.52,-633.724L0,-633.724Z" style="fill:rgb(215,25,32);fill-rule:nonzero;"></path> </g> <g transform="matrix(-1,0,0,1,1371.07,-297.591)"> <rect x="468.541" y="557.611" width="433.988" height="262.369" style="fill:rgb(29,66,137);"></rect> </g> <g transform="matrix(1,0,0,1,901.959,839.729)"> <path d="M0,-291.337L0,-122.611L-215.61,0L-432.847,-122.611L-432.847,-291.337L0,-291.337Z" style="fill:rgb(29,66,137);fill-rule:nonzero;"></path> </g> <g transform="matrix(1,0,0,1,544.828,624.765)"> <path d="M0,57.208L-14.209,64.756L-45.107,64.756L-53.844,57.208L-49.53,45.564L-31.643,45.564L-33.809,51.41L-15.738,51.41L-9.769,35.301L-34.194,35.301L-42.913,27.706L-32.665,0.046L-18.319,-7.548L12.58,-7.548L21.196,0.001L17.034,11.23L-0.851,11.23L1.161,5.799L-16.909,5.799L-22.879,21.907L1.666,21.907L10.265,29.502L0,57.208Z" style="fill:rgb(240,239,239);fill-rule:nonzero;"></path> </g> <g transform="matrix(1,0,0,1,600.778,655.096)"> <path d="M0,-3.452L7.811,-24.532L-10.382,-24.532L-18.193,-3.452L0,-3.452ZM15.788,2.208L1.346,9.895L-23.138,9.895L-32.227,34.426L-50.114,34.426L-23.325,-37.878L19.046,-37.878L27.811,-30.239L15.788,2.208Z" style="fill:rgb(240,239,239);fill-rule:nonzero;"></path> </g> <g transform="matrix(1,0,0,1,656.513,630.565)"> <path d="M0,45.61L16.898,-0.001L-3.516,-0.001L-20.414,45.61L0,45.61ZM15.798,51.408L1.468,58.957L-31.837,58.957L-40.45,51.408L-19.272,-5.754L-5.048,-13.347L28.257,-13.347L36.976,-5.754L15.798,51.408Z" style="fill:rgb(240,239,239);fill-rule:nonzero;"></path> </g> <g transform="matrix(1,0,0,1,711.972,660.067)"> <path d="M0,-13.394L18.565,-13.394L24.551,-29.549L5.986,-29.549L0,-13.394ZM23.843,29.455L4.663,29.455L0.343,0L-4.962,0L-15.875,29.455L-33.824,29.455L-7.035,-42.849L35.952,-42.849L44.551,-35.256L34.712,-8.699L19.346,-0.184L23.843,29.455Z" style="fill:rgb(240,239,239);fill-rule:nonzero;"></path> </g> <g transform="matrix(1,0,0,1,814.717,676.175)"> <path d="M0,-45.61L-17.763,-45.61L-39.607,13.347L-57.556,13.347L-35.711,-45.61L-53.474,-45.61L-48.53,-58.957L4.944,-58.957L0,-45.61Z" style="fill:rgb(240,239,239);fill-rule:nonzero;"></path> </g> <g transform="matrix(1,0,0,1,855.621,624.765)"> <path d="M0,57.208L-14.209,64.756L-45.107,64.756L-53.844,57.208L-49.53,45.564L-31.643,45.564L-33.807,51.41L-15.736,51.41L-9.769,35.301L-34.194,35.301L-42.915,27.706L-32.665,0.046L-18.319,-7.548L12.58,-7.548L21.196,0.001L17.034,11.23L-0.851,11.23L1.161,5.799L-16.909,5.799L-22.879,21.907L1.666,21.907L10.265,29.502L0,57.208Z" style="fill:rgb(240,239,239);fill-rule:nonzero;"></path> </g> <g transform="matrix(1,0,0,1,587.212,402.452)"> <path d="M0,-26.229C0.72,-26.229 1.426,-26.454 2.123,-26.903C2.815,-27.353 3.322,-27.975 3.643,-28.777L9.807,-44.213L-23.066,-44.213L-30.248,-26.229L0,-26.229ZM-14.973,17.834L-8.807,2.397C-8.528,1.699 -8.548,1.099 -8.862,0.598C-9.178,0.1 -9.694,-0.151 -10.416,-0.151L-40.662,-0.151L-47.846,17.834L-14.973,17.834ZM23.068,-55.004C23.685,-55.004 24.145,-54.803 24.449,-54.405C24.751,-54.004 24.784,-53.505 24.545,-52.906L14.908,-28.777C13.39,-24.978 10.75,-21.781 6.987,-19.185C3.222,-16.586 -0.564,-15.288 -4.37,-15.288L-45.885,-15.288L-30.023,-55.004L23.068,-55.004ZM-6.045,-11.091C-2.239,-11.091 0.499,-9.766 2.169,-7.12C3.836,-4.471 3.934,-1.298 2.458,2.397L-7.178,26.526C-7.417,27.126 -7.859,27.65 -8.502,28.101C-9.144,28.55 -9.774,28.775 -10.39,28.775L-63.482,28.775L-47.561,-11.091L-6.045,-11.091ZM-85.814,17.834L-74.547,17.834L-49.767,-44.213L-61.034,-44.213L-56.724,-55.004L-34.19,-55.004L-67.649,28.775L-90.183,28.775L-85.814,17.834ZM19.486,-13.19C20.009,-10.89 20.188,-8.443 20.027,-5.846C19.861,-3.247 19.204,-0.5 18.048,2.397L8.411,26.526C7.453,28.924 6.091,31.173 4.328,33.27C2.563,35.369 0.535,37.219 -1.746,38.816C-4.032,40.416 -6.432,41.664 -8.953,42.563C-11.473,43.462 -13.966,43.912 -16.436,43.912L-96.228,43.912L-91.86,32.971L-12.067,32.971C-10.216,32.971 -8.398,32.348 -6.611,31.097C-4.827,29.849 -3.575,28.324 -2.856,26.526L6.781,2.397C8.136,-0.998 8.46,-4.071 7.76,-6.82C7.056,-9.567 5.562,-11.691 3.282,-13.19C6.76,-14.689 9.95,-16.81 12.848,-19.559C15.742,-22.306 17.873,-25.379 19.231,-28.777L28.867,-52.906C29.544,-54.604 29.49,-56.077 28.703,-57.327C27.913,-58.576 26.595,-59.201 24.743,-59.201L-55.049,-59.201L-50.679,-70.141L29.114,-70.141C31.583,-70.141 33.717,-69.692 35.52,-68.792C37.322,-67.893 38.724,-66.642 39.734,-65.045C40.74,-63.446 41.298,-61.622 41.407,-59.575C41.515,-57.526 41.092,-55.304 40.134,-52.906L30.498,-28.777C29.339,-25.877 27.802,-23.131 25.892,-20.533C23.978,-17.933 21.845,-15.487 19.486,-13.19" style="fill:rgb(240,239,239);fill-rule:nonzero;"></path> </g> <g transform="matrix(1,0,0,1,692.936,397.056)"> <path d="M0,-15.437L9.337,-38.817L-21.067,-38.817L-30.404,-15.437L0,-15.437ZM-28.023,-49.608L22.907,-49.608C24.244,-49.608 24.655,-48.957 24.137,-47.659L7.676,-6.445C7.157,-5.146 6.228,-4.497 4.892,-4.497L-46.039,-4.497L-28.023,-49.608ZM-47.598,-64.745L28.953,-64.745C31.319,-64.745 33.402,-64.295 35.205,-63.396C37.008,-62.496 38.394,-61.272 39.371,-59.724C40.347,-58.174 40.89,-56.375 40.999,-54.329C41.107,-52.28 40.681,-50.058 39.725,-47.659L23.264,-6.445C22.346,-4.145 21.005,-1.949 19.242,0.15C17.477,2.248 15.487,4.072 13.274,5.621C11.06,7.17 8.697,8.393 6.175,9.292C3.655,10.191 1.212,10.641 -1.154,10.641L-40.818,10.641L-45.847,23.231L-35.661,23.231L-40.029,34.171L-61.482,34.171L-47.716,-0.3L3.215,-0.3C4.964,-0.3 6.695,-0.899 8.41,-2.098C10.123,-3.298 11.318,-4.744 11.997,-6.445L28.458,-47.659C29.135,-49.358 29.097,-50.807 28.342,-52.006C27.585,-53.205 26.332,-53.805 24.583,-53.805L-51.968,-53.805L-47.598,-64.745ZM-72.548,23.231L-47.768,-38.817L-57.953,-38.817L-53.643,-49.608L-32.191,-49.608L-65.649,34.171L-87.102,34.171L-82.733,23.231L-72.548,23.231ZM-46.075,49.308L-93.147,49.308L-88.779,38.368L-41.706,38.368L-46.075,49.308Z" style="fill:rgb(240,239,239);fill-rule:nonzero;"></path> </g> <g transform="matrix(1,0,0,1,872.506,420.436)"> <path d="M0,-62.196L-11.421,-62.196L-36.201,-0.149L-24.78,-0.149L-29.149,10.792L-51.836,10.792L-18.377,-72.987L4.31,-72.987L0,-62.196ZM-35.194,25.928L-84.736,25.928L-80.368,14.988L-30.825,14.988L-35.194,25.928ZM-62.902,-0.149L-47.459,-38.816L-92.727,4.197L-103.483,-38.816L-118.925,-0.149L-107.505,-0.149L-111.873,10.792L-134.561,10.792L-101.102,-72.987L-98.786,-72.987L-84.586,-16.186L-24.86,-72.987L-22.545,-72.987L-56.003,10.792L-78.691,10.792L-74.322,-0.149L-62.902,-0.149ZM-121.911,-88.124L-84.253,-88.124L-73.333,-44.362L-27.303,-88.124L10.355,-88.124L5.985,-77.184L-25.5,-77.184L-81.473,-23.979L-94.797,-77.184L-126.282,-77.184L-121.911,-88.124ZM-157.047,-0.149L-145.626,-0.149L-120.846,-62.196L-132.267,-62.196L-127.957,-72.987L-105.269,-72.987L-138.728,10.792L-161.416,10.792L-157.047,-0.149ZM-117.919,25.928L-167.461,25.928L-163.092,14.988L-113.55,14.988L-117.919,25.928Z" style="fill:rgb(240,239,239);fill-rule:nonzero;"></path> </g> </g> </g> </svg>