<svg viewBox="0 0 231.75 39.24" xmlns="http://www.w3.org/2000/svg" width="2500" height="423"><g fill="#888"><path d="M136.58 4.4h8.97v5.41h-8.97zM136.58 13.09h8.97v5.41h-8.97z"/><path d="M150.16 24.25c0 3.56-2 6.09-6 6.09h-7.63V36h7.92c6.76 0 11.31-5 11.31-11.44V4.19h-5.65zM160.94 17.08h17.82v6h-17.82zM157.07 4.38h3.34v5.4h-3.34zM161.71 4.38h3.33v5.4h-3.33zM231.75 36l-7.54-17.47 4.51-9.24v-5.1H209.1V10h12.75s-7.31 15.62-8.24 17.49a5.46 5.46 0 0 1-5.23 3V36c5.35.19 8.49-1.85 10.78-7l1.93-4.33L225.73 36zM185.73 4.18v12.19c0 1.68-.46 2.45-1.87 2.64v6.23c3.66-.17 5.74-1.76 6.66-4.52h7.62c-.11 4.3-.7 5.73-2.83 7.54s-5.11 2.26-9.11 2.26h-2V36h1.51c7.17 0 11-1.52 13.82-4s4.15-5.15 4.15-12.72V4.19zM198.16 10v5h-7.05v-5zM126.88 20.08c0 5.33-3.3 10.33-9.06 10.33h-.23V4.19h-5.85V36h4c12 0 16.62-8.23 16.62-15.91v-.4h-5.46zM68.74 2.54H68A10.77 10.77 0 0 0 57.62 10c-.93 2.7-.91 5.77-.91 9.66v.95c0 3.87 0 6.95.91 9.66A10.79 10.79 0 0 0 68 37.65h.73a10.79 10.79 0 0 0 10.39-7.42c.92-2.71.9-5.79.9-9.66v-.95c0-3.89 0-7-.9-9.66a10.77 10.77 0 0 0-10.38-7.42zm-6.14 9.85A5.6 5.6 0 0 1 68 8h.73A5.59 5.59 0 0 1 74 11.83l-11.76 9.85v-2.06a41.56 41.56 0 0 1 .37-7.23zm11.55 15.39a5.61 5.61 0 0 1-5.4 4.39H68a5.62 5.62 0 0 1-5.24-3.8l11.74-9.85v2.04a41.64 41.64 0 0 1-.35 7.22zM84.79 4.19h21.88v5.84H84.79zM84.79 20.58H93v3.83c0 3.57-2 6.09-6 6.09h-.39V36h.52c6.76 0 11.31-5 11.31-11.44v-4h8.2v-5.81H84.79z"/></g><path d="M37.63 38.36h-7.86l-.47-3.68c-2 2.38-5.38 4.56-11.23 4.56C8.54 39.24 0 33.08 0 20.08 0 8.18 7.45 0 19.52 0c9 0 16.15 4.66 17.65 13.82h-11.6a6.09 6.09 0 0 0-6.26-4.71c-4.81 0-7.09 4.35-7.09 10.92 0 5.28 1.66 10.09 7.82 10.09 2.48 0 5.64-1.71 6.26-4.3h-5.39v-8.07h16.72z" fill="#231815"/><path d="M51.87 24.12H45.5v-6.37h-7.87v6.37h-6.37v7.87h6.37v6.37h7.87v-6.37h6.37z" fill="#ef8200"/></svg>